<svg display="none" version="1.1" xmlns="http://www.w3.org/2000/svg" xmlns:xlink="http://www.w3.org/1999/xlink">
<defs>
<symbol id="icon-point-up" viewBox="0 0 1024 1024">
	<title>point-up</title>
	<path class="path1" d="M320 128v347.808c-80.91-22.456-100.592-33.808-186-33.808-73.888 0-134 60.112-134 134 0 73.886 60.112 134 134 134 103.972 0 151.95 38.722 205.71 115.090 1.596 2.268 3.162 4.578 4.71 6.91h-88.42v192h640v-192h-57.004c4.302-63.662 22.192-81.12 44.084-102.446 16.89-16.452 37.912-36.928 53.276-74.030 16.13-38.954 23.644-89.646 23.644-159.524v-64.98c0-61.938-51.268-112.326-114.286-112.326-10.47 0-20.876 1.424-30.9 4.19-20.996-19.71-49.002-30.964-78.814-30.964-10.468 0-20.876 1.424-30.898 4.19-20.998-19.71-49.006-30.964-78.816-30.964-18.036 0-35.1 4.142-50.286 11.488v-148.634c0-70.694-57.306-128-128-128-70.692 0-128 57.306-128 128zM832 928c0 17.672-14.326 32-32 32s-32-14.328-32-32 14.326-32 32-32 32 14.328 32 32zM512 134v256h64v-6.532c0-26.646 22.558-48.326 50.286-48.326 17.37 0 33.29 8.468 42.586 22.654l16.244 24.788 25.958-14.298c7.562-4.166 16.182-6.368 24.926-6.368 17.37 0 33.288 8.468 42.582 22.652l16.244 24.79 25.96-14.298c7.562-4.166 16.182-6.368 24.928-6.368 27.726 0 50.286 21.68 50.286 48.326v64.98c0 126.562-38.206 152.088-65.95 179.112-28.32 27.588-59.984 58.49-66.728 150.888h-334.374c-8.264-15.756-17.264-30.7-27.090-44.658-67.858-96.392-139.546-147.342-267.858-147.342-31.982 0-58-30.020-58-62s26.018-60 58-60c85.66 0 105.412 12.414 186 36.96 22.742 6.124 45.27 11.922 63.334 15.876l0.666-436.836c0-35.29 28.71-64 64-64s64 28.71 64 64z" />
</symbol>
</defs>
</svg>
